<?xml version="1.0" encoding="UTF-8"?>
<svg width="32" height="32" viewBox="0 0 32 32" fill="none" xmlns="http://www.w3.org/2000/svg">
    <rect width="32" height="32" rx="8" fill="#22C55E" />
    <path
        d="M20 12C20 10.8954 19.1046 10 18 10H14C12.8954 10 12 10.8954 12 12V20C12 21.1046 12.8954 22 14 22H18C19.1046 22 20 21.1046 20 20V12Z"
        fill="white" />
    <path
        d="M16 14C16 13.4477 15.5523 13 15 13C14.4477 13 14 13.4477 14 14V18C14 18.5523 14.4477 19 15 19C15.5523 19 16 18.5523 16 18V14Z"
        fill="#22C55E" />
</svg>
